<svg width="48" height="48" viewBox="0 0 48 48" fill="none" xmlns="http://www.w3.org/2000/svg">
<g id="coins-alt-svgrepo-com 1">
<path id="Vector" d="M28 21C28 23.7614 23.5228 26 18 26C12.4772 26 8 23.7614 8 21M28 21C28 18.2386 23.5228 16 18 16C12.4772 16 8 18.2386 8 21M28 21V29M8 21V29M28 29C28 31.7614 23.5228 34 18 34C12.4772 34 8 31.7614 8 29M28 29V37C28 39.7614 23.5228 42 18 42C12.4772 42 8 39.7614 8 37V29M40 11C40 8.23858 35.5228 6 30 6C26.0418 6 22.6208 7.14986 21 8.81794M40 11C40 12.8507 37.989 14.4666 35 15.3311M40 11V28C40 29.4806 37.989 30.7732 35 31.4648M40 20C40 21.5134 37.899 22.8304 34.7998 23.51" stroke="#ECA881" stroke-width="2" stroke-linecap="round" stroke-linejoin="round"/>
</g>
</svg>
